<?xml version="1.0" encoding="UTF-8" standalone="no"?>
<svg
   width="1150.7498"
   zoomAndPan="magnify"
   viewBox="0 0 863.06232 384.60968"
   height="512.81293"
   preserveAspectRatio="xMidYMid"
   version="1.0"
   id="svg138"
   sodipodi:docname="logo_alpha.svg"
   inkscape:version="1.2.2 (b0a8486541, 2022-12-01)"
   xmlns:inkscape="http://www.inkscape.org/namespaces/inkscape"
   xmlns:sodipodi="http://sodipodi.sourceforge.net/DTD/sodipodi-0.dtd"
   xmlns="http://www.w3.org/2000/svg"
   xmlns:svg="http://www.w3.org/2000/svg">
  <sodipodi:namedview
     id="namedview140"
     pagecolor="#ffffff"
     bordercolor="#000000"
     borderopacity="0.25"
     inkscape:showpageshadow="2"
     inkscape:pageopacity="0.0"
     inkscape:pagecheckerboard="0"
     inkscape:deskcolor="#d1d1d1"
     showgrid="false"
     inkscape:zoom="0.118"
     inkscape:cx="538.13559"
     inkscape:cy="275.42373"
     inkscape:window-width="1680"
     inkscape:window-height="1013"
     inkscape:window-x="0"
     inkscape:window-y="0"
     inkscape:window-maximized="1"
     inkscape:current-layer="svg138" />
  <defs
     id="defs10">
    <g
       id="g2" />
    <clipPath
       id="d25a4ac3ab">
      <rect
         x="0"
         width="895"
         y="0"
         height="552"
         id="rect4" />
    </clipPath>
    <clipPath
       id="e15ed760e6">
      <rect
         x="0"
         width="685"
         y="0"
         height="82"
         id="rect7" />
    </clipPath>
  </defs>
  <g
     transform="translate(-24.181606,-72.406152)"
     id="g30">
    <g
       clip-path="url(#d25a4ac3ab)"
       id="g28">
      <g
         fill="#ede2d0"
         fill-opacity="1"
         id="g18">
        <g
           transform="translate(1.044039,431.9999)"
           id="g16">
          <g
             id="g14">
            <path
               d="m 83.984375,-264.9375 c -0.3125,3.71094 -0.625,7.34375 -0.9375,10.90625 -0.304687,3.55469 -0.765625,7.1875 -1.390625,10.90625 4.644531,-6.5 8.664062,-13.22656 12.0625,-20.1875 3.40625,-6.95703 7.11719,-13.6875 11.14063,-20.1875 4.01953,-6.1875 8.26953,-11.98437 12.75,-17.39062 4.48828,-5.41407 9.82812,-10.28907 16.01562,-14.625 11.75781,-8.34375 23.05078,-11.42969 33.875,-9.26563 10.82031,2.15625 20.10156,9.26563 27.84375,21.32813 5.875,9.59375 10.20312,19.80859 12.98437,30.64062 2.78125,10.82422 5.41016,21.64844 7.89063,32.46875 0.61328,3.09375 1.14844,6.10938 1.60937,9.04688 0.46875,2.9375 1.01563,5.95312 1.64063,9.04687 2.46875,-0.61328 3.92969,-1.84766 4.39062,-3.70312 0.46875,-1.86329 1.01563,-3.41016 1.64063,-4.64063 3.39453,-8.97656 7.33594,-17.5625 11.82812,-25.75 4.48829,-8.19531 9.35938,-16.16406 14.60938,-23.90625 4.01953,-5.5625 8.34766,-10.58203 12.98437,-15.0625 4.64454,-4.48828 9.90625,-8.28125 15.78125,-11.375 13.30079,-7.11328 26.44532,-8.73828 39.4375,-4.875 13,3.86719 23.05469,12.44922 30.17188,25.75 3.39453,6.80469 5.86328,13.99609 7.40625,21.57813 1.55078,7.57421 2.48437,15.23046 2.79687,22.96875 0.92579,18.86718 1.00391,37.80859 0.23438,56.82812 -0.77344,19.02344 -2.08984,37.96875 -3.95313,56.84375 -1.85546,20.41797 -2.9375,40.757812 -3.25,61.015625 -0.30468,20.261719 1.25,40.601563 4.65625,61.015625 0,0.617188 0.0703,1.386719 0.21875,2.3125 0.15625,0.929688 0.23438,1.855469 0.23438,2.78125 0.92578,1.851562 1.69531,3.941406 2.3125,6.265625 0.625,2.320313 2.01953,3.789063 4.1875,4.40625 2.78125,1.238281 4.86328,0.929687 6.25,-0.921875 1.39453,-1.855469 2.86719,-3.558594 4.42187,-5.109375 14.84375,-15.457031 27.0625,-32.46875 36.65625,-51.03125 5.5625,-10.207031 10.73829,-20.566406 15.53125,-31.078125 4.80079,-10.519531 9.05469,-21.347656 12.76563,-32.48438 0.92578,-3.09375 1.85156,-5.41406 2.78125,-6.96875 0.9375,-1.53906 2.17578,-2.3125 3.71875,-2.3125 1.53906,0 3.08594,0.3086 4.64062,0.92188 2.78125,0.92969 3.86329,2.9375 3.25,6.03125 -0.92968,3.40625 -1.85546,6.65625 -2.78125,9.75 -0.92968,3.09375 -2.01171,6.1875 -3.25,9.28125 -6.8125,16.699219 -14.32031,33.167969 -22.51562,49.40625 -8.1875,16.242188 -17.69922,31.78125 -28.53125,46.625 -1.23047,1.550781 -2.54297,3.175781 -3.9375,4.875 -1.39844,1.707031 -2.71094,3.488281 -3.9375,5.34375 -4.64844,7.414062 -10.83984,11.507812 -18.57813,12.28125 -7.73046,0.78125 -14.99609,-0.6875 -21.79687,-4.40625 -6.80469,-3.710938 -11.60156,-8.808594 -14.39063,-15.296875 -3.39843,-8.976563 -5.71484,-18.101563 -6.95312,-27.375 -1.24219,-9.28125 -2.16797,-18.5625 -2.78125,-27.84375 -1.85547,-22.269531 -2.47656,-44.460937 -1.85938,-66.578125 0.625,-22.11328 0.9375,-44.15625 0.9375,-66.125 0.30079,-11.44531 0.53125,-22.96875 0.6875,-34.5625 0.15625,-11.60156 -0.54296,-23.28125 -2.09375,-35.03125 -1.23046,-8.66406 -4.01171,-16.86328 -8.34375,-24.59375 -4.33593,-7.42578 -9.4375,-11.44531 -15.3125,-12.0625 -5.875,-0.61328 -11.75,2.17188 -17.625,8.35938 -1.86718,2.15625 -3.57421,4.24218 -5.125,6.25 -1.54296,2.01171 -2.92968,4.25781 -4.15625,6.73437 C 248.69141,-222.86328 234,-175.22656 228.75,-124.8125 c -1.24219,13.30469 -1.9375,26.683594 -2.09375,40.140625 -0.15625,13.449219 -0.54297,26.824219 -1.15625,40.125 0,6.5 -0.62109,10.449219 -1.85938,11.84375 -1.24218,1.386719 -5.26171,2.234375 -12.0625,2.546875 -1.85546,0.3125 -3.78906,0.46875 -5.79687,0.46875 -2.01172,0 -3.94531,0 -5.79688,0 -4.96093,0.304688 -7.98046,-0.08594 -9.0625,-1.171875 -1.07421,-1.082031 -1.60937,-4.097656 -1.60937,-9.046875 -0.3125,-5.5625 -0.54688,-11.203125 -0.70313,-16.921875 -0.15625,-5.726563 -0.0781,-11.378906 0.23438,-16.953125 0.3125,-26.90625 -0.69531,-53.66016 -3.01563,-80.26562 -2.32421,-26.60157 -5.03125,-53.05079 -8.125,-79.34375 -1.85546,-17.00782 -5.875,-33.55469 -12.0625,-49.64063 -0.92968,-2.16406 -1.85546,-4.25391 -2.78125,-6.26562 -0.92968,-2.00782 -1.85546,-3.78516 -2.78125,-5.32813 -4.94921,-6.8125 -10.36718,-7.125 -16.25,-0.9375 -4.32421,4.02344 -8.10937,8.51172 -11.35937,13.46875 -3.25,4.94922 -6.10937,10.04688 -8.57812,15.29688 -9.28125,17.63671 -17.09375,35.73437 -23.4375,54.29687 -6.343755,18.55469 -11.527349,37.57422 -15.54688,57.0625 -4.636719,21.65625 -8.273438,43.54297 -10.90625,65.65625 -2.625,22.117188 -4.867188,44.308594 -6.71875,66.578125 -0.3125,5.875 -1.011719,9.355469 -2.09375,10.4375 -1.085938,1.085937 -4.71875,1.78125 -10.90625,2.09375 -3.09375,0 -6.652344,0 -10.671875,0 -7.730469,0 -12.292969,-0.617187 -13.6875,-1.859375 -1.386719,-1.238281 -2.542969,-5.878906 -3.46875,-13.921875 -2.480469,-23.195313 -3.570313,-46.394531 -3.265625,-69.59375 0.3125,-23.195315 0.9375,-46.238285 1.875,-69.124995 0.613281,-15.78125 1.382812,-31.55469 2.3125,-47.32813 0.925781,-15.78125 2.316406,-31.55469 4.171875,-47.32812 3.40625,-30.00782 8.046875,-59.24219 13.921875,-87.70313 1.238281,-5.875 2.550781,-9.35156 3.9375,-10.4375 1.394531,-1.08203 5.03125,-1.625 10.90625,-1.625 3.40625,0.3125 6.734375,0.54688 9.984375,0.70313 3.25,0.15625 6.421875,0.23437 9.515625,0.23437 5.25,0 8.1875,2.47656 8.8125,7.42188 1.238281,8.35546 1.546875,16.55468 0.921875,24.59375 -0.929687,10.51171 -1.855469,20.87109 -2.78125,31.07812 -0.929687,10.21094 -1.855469,20.41797 -2.78125,30.625 z m 0,0"
               id="path12" />
          </g>
        </g>
      </g>
      <g
         fill="#ede2d0"
         fill-opacity="1"
         id="g26">
        <g
           transform="translate(433.46267,431.9999)"
           id="g24">
          <g
             id="g22">
            <path
               d="m 102.54688,-10.203125 c 0,0 0.76953,1.234375 2.3125,3.703125 3.09375,-3.09375 5.5664,-6.414062 7.42187,-9.96875 1.85156,-3.5625 3.71094,-7.039062 5.57813,-10.4375 6.17578,-12.6875 11.27343,-25.679688 15.29687,-38.984375 4.03125,-13.300781 7.74219,-26.753906 11.14062,-40.359375 3.40625,-13.61328 6.88282,-27.22266 10.4375,-40.82812 3.5625,-13.61329 6.89063,-27.22266 9.98438,-40.82813 1.23828,-5.57031 2.24219,-11.29687 3.01562,-17.17187 0.76954,-5.875 1.77344,-11.75391 3.01563,-17.64063 1.23828,-5.5625 2.55078,-8.96094 3.9375,-10.20312 1.39453,-1.23829 5.03125,-2.00782 10.90625,-2.3125 2.78125,-0.3125 5.64062,-0.39063 8.57812,-0.23438 2.9375,0.15625 5.80079,0.0781 8.59375,-0.23437 3.70704,-0.61329 6.56641,0.008 8.57813,1.85937 2.00781,1.85547 3.47656,4.32813 4.40625,7.42188 3.40625,9.89843 6.11328,19.87109 8.125,29.92187 2.00781,10.05469 3.94141,20.18359 5.79687,30.39063 3.09375,14.85546 6.33594,29.78125 9.73438,44.78124 3.40625,15 8.20312,29.460942 14.39062,43.375005 1.85157,3.71875 3.70704,7.28125 5.5625,10.6875 1.86329,3.398437 4.1875,6.640625 6.96875,9.734375 7.42579,7.730469 15.00391,7.886719 22.73438,0.46875 1.53906,-1.550781 2.92969,-3.253906 4.17187,-5.109375 1.23829,-1.851563 2.32032,-3.707031 3.25,-5.5625 6.5,-10.832031 11.52344,-22.203125 15.07813,-34.109375 3.5625,-11.90625 6.57812,-24.04688 9.04687,-36.42187 0.625,-3.40625 0.39454,-6.34375 -0.6875,-8.8125 -1.08593,-2.47657 -2.86718,-4.80079 -5.34375,-6.96875 -29.07421,-27.21875 -50.10546,-59.07813 -63.09375,-95.57813 -3.09375,-9.28125 -5.49609,-18.55469 -7.20312,-27.82812 -1.69922,-9.28125 -1.77344,-18.875 -0.21875,-28.78125 1.85156,-13.30079 7.57031,-22.89063 17.15625,-28.76563 9.59375,-5.875 20.72656,-6.95703 33.40625,-3.25 7.11328,2.16797 13.45312,5.26172 19.01562,9.28125 5.57032,4.02344 10.52344,8.82031 14.85938,14.39063 5.57031,7.41796 10.13281,15.22656 13.6875,23.42187 3.5625,8.19922 6.42187,16.63281 8.57812,25.29688 4.01954,16.69921 6.49219,33.40234 7.42188,50.10937 0.9375,16.69922 0.94141,33.55859 0.0156,50.57813 -0.3125,5.25 0.53516,9.57812 2.54688,12.98437 2.00781,3.40625 5.33203,6.19531 9.96875,8.35938 22.89453,12.36718 47.33203,17.93359 73.3125,16.70312 2.78125,0 5.01953,0.30859 6.71875,0.92187 1.70703,0.61719 2.71875,2.625 3.03125,6.03125 0,2.78125 -0.77734,4.5625 -2.32813,5.34375 -1.54296,0.77344 -3.39843,1.3086 -5.5625,1.60938 -9.59375,1.24219 -19.1875,1.71094 -28.78125,1.40625 -9.58593,-0.3125 -19.01562,-1.55078 -28.29687,-3.71875 -4.02344,-1.23828 -8.04297,-2.39844 -12.0625,-3.48438 -4.02344,-1.08203 -8.04297,-2.23828 -12.0625,-3.46875 -4.63672,-1.23828 -7.41797,-1.625 -8.34375,-1.15625 -0.92969,0.46094 -1.85547,3.00782 -2.78125,7.64063 -0.92969,5.875 -2.01172,11.67969 -3.25,17.40625 -1.24219,5.71875 -2.78906,11.515625 -4.64063,17.390625 -1.55468,4.335937 -3.25781,8.589844 -5.10937,12.765625 -1.85547,4.179688 -4.02344,8.121094 -6.5,11.828125 -7.11719,11.449219 -16.01172,19.417969 -26.6875,23.90625 -10.66797,4.480469 -22.33984,7.027344 -35.01563,7.640625 -43.92968,1.242188 -74.08984,-19.328125 -90.48437,-61.703125 -1.23047,-3.09375 -2.38672,-6.1875 -3.46875,-9.28125 -1.08594,-3.09375 -2.40234,-6.648435 -3.95313,-10.671875 -1.54296,2.48047 -2.625,4.80469 -3.25,6.96875 -0.61718,2.15625 -1.23046,4.320312 -1.84375,6.484375 -2.79296,10.523437 -5.65625,21.042969 -8.59375,31.5625 -2.9375,10.511719 -6.26171,20.871094 -9.96875,31.078125 C 148.01562,-23.820312 145,-17.25 141.75,-10.90625 138.5,-4.5625 134.70703,1.546875 130.375,7.421875 123.25781,17.015625 113.98438,22.273438 102.54688,23.203125 85.835938,24.441406 73.460938,22.507812 65.421875,17.40625 57.378906,12.300781 50.265625,3.710938 44.078125,-8.359375 39.128906,-18.554688 35.414062,-29.066406 32.9375,-39.890625 30.46875,-50.722656 28.457031,-61.707031 26.90625,-72.84375 23.8125,-93.257812 22.570312,-113.75 23.1875,-134.3125 c 0.625,-20.57031 2.019531,-41.06641 4.1875,-61.48437 2.164062,-21.65625 5.179688,-43.15625 9.046875,-64.5 3.863281,-21.34375 8.425781,-42.53125 13.6875,-63.5625 1.238281,-3.70704 2.164063,-7.10938 2.78125,-10.20313 1.851563,-6.5 3.550781,-10.28906 5.09375,-11.375 1.550781,-1.08203 5.578125,-1.46875 12.078125,-1.15625 2.476562,0 5.03125,0.0781 7.65625,0.23438 2.625,0.15625 5.332031,0.23437 8.125,0.23437 6.488281,0.30469 10.503906,1.15234 12.046875,2.54688 1.550781,1.38671 2.484375,5.32812 2.796875,11.82812 0.61328,16.08594 0.45703,31.85938 -0.46875,47.32813 -1.542969,21.34375 -3.089844,42.84375 -4.640625,64.5 -1.542969,21.64843 -2.933594,43.29687 -4.171875,64.95312 -0.929688,22.88672 -0.621094,45.77734 0.921875,68.671875 1.550781,22.886719 4.492187,45.777344 8.828125,68.671875 0.30078,2.15625 0.76563,4.632812 1.39063,7.421875 z M 276.07812,-302.04687 c 0.30079,22.27343 5.09375,42.53125 14.375,60.78125 9.28125,18.25 20.41407,35.88281 33.40625,52.89062 1.85157,-16.08203 2.31641,-31.85937 1.39063,-47.32812 -0.92969,-15.46875 -3.86719,-30.78125 -8.8125,-45.9375 -2.16797,-5.875 -4.64063,-11.51563 -7.42188,-16.92188 -2.78125,-5.41406 -6.33984,-10.28906 -10.67187,-14.625 -2.16797,-2.47656 -4.57031,-5.03125 -7.20313,-7.65625 -2.625,-2.63281 -5.48437,-3.33203 -8.57812,-2.09375 -3.71094,1.24219 -5.64063,3.71875 -5.79688,7.4375 -0.15625,3.71094 -0.38671,7.26172 -0.6875,10.65625 0,0.625 0,1.55859 0,2.79688 z m 0,0"
               id="path20" />
          </g>
        </g>
      </g>
    </g>
  </g>
  <g
     transform="translate(69.818394,166.59385)"
     id="g136">
    <g
       clip-path="url(#e15ed760e6)"
       id="g134">
      <g
         fill="#000000"
         fill-opacity="1"
         id="g38">
        <g
           transform="translate(1.962712,57.199933)"
           id="g36">
          <g
             id="g34">
            <path
               d="m 15.625,0 v -35.9375 h -13.5 v -3.25 h 30.40625 v 3.25 H 18.984375 V 0 Z m 0,0"
               id="path32" />
          </g>
        </g>
      </g>
      <g
         fill="#000000"
         fill-opacity="1"
         id="g46">
        <g
           transform="translate(50.047303,57.199933)"
           id="g44">
          <g
             id="g42">
            <path
               d="m 6.328125,0 v -39.1875 h 23.0625 V -36 H 9.734375 v 14.453125 H 27.9375 v 3.125 H 9.734375 V -3.1875 H 30 V 0 Z m 0,0"
               id="path40" />
          </g>
        </g>
      </g>
      <g
         fill="#000000"
         fill-opacity="1"
         id="g54">
        <g
           transform="translate(97.572231,57.199933)"
           id="g52">
          <g
             id="g50">
            <path
               d="M 1.234375,0 17.46875,-39.1875 h 3.25 L 36.953125,0 h -3.59375 L 29.28125,-9.859375 H 8.90625 L 4.875,0 Z M 10.25,-12.984375 h 17.734375 l -8.890625,-21.5625 z m 0,0"
               id="path48" />
          </g>
        </g>
      </g>
      <g
         fill="#000000"
         fill-opacity="1"
         id="g62">
        <g
           transform="translate(149.23882,57.199933)"
           id="g60">
          <g
             id="g58">
            <path
               d="m 6.328125,0 v -39.1875 h 3.1875 L 25.8125,-14.671875 42.09375,-39.1875 h 3.140625 V 0 H 41.875 v -32.921875 l -14.671875,22 H 24.40625 l -14.671875,-22 V 0 Z m 0,0"
               id="path56" />
          </g>
        </g>
      </g>
      <g
         fill="#000000"
         fill-opacity="1"
         id="g68">
        <g
           transform="translate(214.22597,57.199933)"
           id="g66">
          <g
             id="g64" />
        </g>
      </g>
      <g
         fill="#000000"
         fill-opacity="1"
         id="g76">
        <g
           transform="translate(242.66554,57.199933)"
           id="g74">
          <g
             id="g72">
            <path
               d="m 6.328125,0 v -39.1875 h 3.1875 L 25.8125,-14.671875 42.09375,-39.1875 h 3.140625 V 0 H 41.875 v -32.921875 l -14.671875,22 H 24.40625 l -14.671875,-22 V 0 Z m 0,0"
               id="path70" />
          </g>
        </g>
      </g>
      <g
         fill="#000000"
         fill-opacity="1"
         id="g84">
        <g
           transform="translate(307.65269,57.199933)"
           id="g82">
          <g
             id="g80">
            <path
               d="m 6.328125,0 v -39.1875 h 23.0625 V -36 H 9.734375 v 14.453125 H 27.9375 v 3.125 H 9.734375 V -3.1875 H 30 V 0 Z m 0,0"
               id="path78" />
          </g>
        </g>
      </g>
      <g
         fill="#000000"
         fill-opacity="1"
         id="g92">
        <g
           transform="translate(355.17761,57.199933)"
           id="g90">
          <g
             id="g88">
            <path
               d="M 32.6875,0 V -18.359375 H 9.734375 V 0 h -3.40625 v -39.1875 h 3.40625 v 17.578125 H 32.6875 V -39.1875 h 3.421875 V 0 Z m 0,0"
               id="path86" />
          </g>
        </g>
      </g>
      <g
         fill="#000000"
         fill-opacity="1"
         id="g100">
        <g
           transform="translate(411.04185,57.199933)"
           id="g98">
          <g
             id="g96">
            <path
               d="m 6.328125,0 v -39.1875 h 14.5 c 2.644531,0 4.9375,0.507812 6.875,1.515625 1.945313,1 3.460937,2.40625 4.546875,4.21875 1.082031,1.8125 1.625,3.96875 1.625,6.46875 0,3.25 -0.898438,5.933594 -2.6875,8.046875 -1.792969,2.105469 -4.242188,3.417969 -7.34375,3.9375 L 34.484375,0 H 30.40625 L 19.875,-14.71875 H 9.734375 V 0 Z m 3.40625,-17.96875 h 10.75 c 3.101563,0 5.53125,-0.800781 7.28125,-2.40625 1.757813,-1.601562 2.640625,-3.804688 2.640625,-6.609375 0,-2.757813 -0.882812,-4.941406 -2.640625,-6.546875 -1.75,-1.601562 -4.179687,-2.40625 -7.28125,-2.40625 h -10.75 z m 0,0"
               id="path94" />
          </g>
        </g>
      </g>
      <g
         fill="#000000"
         fill-opacity="1"
         id="g108">
        <g
           transform="translate(462.76443,57.199933)"
           id="g106">
          <g
             id="g104">
            <path
               d="M 14.15625,0 1.34375,-39.1875 H 4.921875 L 10.75,-21.328125 15.90625,-5.3125 l 5.875,-16.015625 6.484375,-17.859375 h 3.25 l 12.4375,33.921875 5.203125,-16.0625 5.765625,-17.859375 H 58.5 L 45.625,0 H 42.4375 L 29.890625,-34.03125 22.953125,-15.109375 17.40625,0 Z m 0,0"
               id="path102" />
          </g>
        </g>
      </g>
      <g
         fill="#000000"
         fill-opacity="1"
         id="g116">
        <g
           transform="translate(536.03499,57.199933)"
           id="g114">
          <g
             id="g112">
            <path
               d="m 6.328125,0 v -39.1875 h 23.0625 V -36 H 9.734375 v 14.453125 H 27.9375 v 3.125 H 9.734375 V -3.1875 H 30 V 0 Z m 0,0"
               id="path110" />
          </g>
        </g>
      </g>
      <g
         fill="#000000"
         fill-opacity="1"
         id="g124">
        <g
           transform="translate(583.55992,57.199933)"
           id="g122">
          <g
             id="g120">
            <path
               d="m 6.328125,0 v -39.1875 h 14.5 c 2.644531,0 4.9375,0.507812 6.875,1.515625 1.945313,1 3.460937,2.40625 4.546875,4.21875 1.082031,1.8125 1.625,3.96875 1.625,6.46875 0,3.25 -0.898438,5.933594 -2.6875,8.046875 -1.792969,2.105469 -4.242188,3.417969 -7.34375,3.9375 L 34.484375,0 H 30.40625 L 19.875,-14.71875 H 9.734375 V 0 Z m 3.40625,-17.96875 h 10.75 c 3.101563,0 5.53125,-0.800781 7.28125,-2.40625 1.757813,-1.601562 2.640625,-3.804688 2.640625,-6.609375 0,-2.757813 -0.882812,-4.941406 -2.640625,-6.546875 -1.75,-1.601562 -4.179687,-2.40625 -7.28125,-2.40625 h -10.75 z m 0,0"
               id="path118" />
          </g>
        </g>
      </g>
      <g
         fill="#000000"
         fill-opacity="1"
         id="g132">
        <g
           transform="translate(635.2825,57.199933)"
           id="g130">
          <g
             id="g128">
            <path
               d="m 15.625,0 v -35.9375 h -13.5 v -3.25 h 30.40625 v 3.25 H 18.984375 V 0 Z m 0,0"
               id="path126" />
          </g>
        </g>
      </g>
    </g>
  </g>
</svg>
