<svg xmlns="http://www.w3.org/2000/svg" xmlns:xlink="http://www.w3.org/1999/xlink" width="2000" zoomAndPan="magnify" viewBox="0 0 1500 1499.999933" height="2000" preserveAspectRatio="xMidYMid meet" version="1.0"><defs><g/><clipPath id="d25a4ac3ab"><rect x="0" width="895" y="0" height="552"/></clipPath><clipPath id="e15ed760e6"><rect x="0" width="685" y="0" height="82"/></clipPath></defs><g transform="matrix(1, 0, 0, 1, 320, 474)"><g clip-path="url(#d25a4ac3ab)"><g fill="#ede2d0" fill-opacity="1"><g transform="translate(1.044039, 431.999902)"><g><path d="M 83.984375 -264.9375 C 83.671875 -261.226562 83.359375 -257.59375 83.046875 -254.03125 C 82.742188 -250.476562 82.28125 -246.84375 81.65625 -243.125 C 86.300781 -249.625 90.320312 -256.351562 93.71875 -263.3125 C 97.125 -270.269531 100.835938 -277 104.859375 -283.5 C 108.878906 -289.6875 113.128906 -295.484375 117.609375 -300.890625 C 122.097656 -306.304688 127.4375 -311.179688 133.625 -315.515625 C 145.382812 -323.859375 156.675781 -326.945312 167.5 -324.78125 C 178.320312 -322.625 187.601562 -315.515625 195.34375 -303.453125 C 201.21875 -293.859375 205.546875 -283.644531 208.328125 -272.8125 C 211.109375 -261.988281 213.738281 -251.164062 216.21875 -240.34375 C 216.832031 -237.25 217.367188 -234.234375 217.828125 -231.296875 C 218.296875 -228.359375 218.84375 -225.34375 219.46875 -222.25 C 221.9375 -222.863281 223.398438 -224.097656 223.859375 -225.953125 C 224.328125 -227.816406 224.875 -229.363281 225.5 -230.59375 C 228.894531 -239.570312 232.835938 -248.15625 237.328125 -256.34375 C 241.816406 -264.539062 246.6875 -272.507812 251.9375 -280.25 C 255.957031 -285.8125 260.285156 -290.832031 264.921875 -295.3125 C 269.566406 -299.800781 274.828125 -303.59375 280.703125 -306.6875 C 294.003906 -313.800781 307.148438 -315.425781 320.140625 -311.5625 C 333.140625 -307.695312 343.195312 -299.113281 350.3125 -285.8125 C 353.707031 -279.007812 356.175781 -271.816406 357.71875 -264.234375 C 359.269531 -256.660156 360.203125 -249.003906 360.515625 -241.265625 C 361.441406 -222.398438 361.519531 -203.457031 360.75 -184.4375 C 359.976562 -165.414062 358.660156 -146.46875 356.796875 -127.59375 C 354.941406 -107.175781 353.859375 -86.835938 353.546875 -66.578125 C 353.242188 -46.316406 354.796875 -25.976562 358.203125 -5.5625 C 358.203125 -4.945312 358.273438 -4.175781 358.421875 -3.25 C 358.578125 -2.320312 358.65625 -1.394531 358.65625 -0.46875 C 359.582031 1.382812 360.351562 3.472656 360.96875 5.796875 C 361.59375 8.117188 362.988281 9.585938 365.15625 10.203125 C 367.9375 11.441406 370.019531 11.132812 371.40625 9.28125 C 372.800781 7.425781 374.273438 5.722656 375.828125 4.171875 C 390.671875 -11.285156 402.890625 -28.296875 412.484375 -46.859375 C 418.046875 -57.066406 423.222656 -67.425781 428.015625 -77.9375 C 432.816406 -88.457031 437.070312 -99.285156 440.78125 -110.421875 C 441.707031 -113.515625 442.632812 -115.835938 443.5625 -117.390625 C 444.5 -118.929688 445.738281 -119.703125 447.28125 -119.703125 C 448.820312 -119.703125 450.367188 -119.394531 451.921875 -118.78125 C 454.703125 -117.851562 455.785156 -115.84375 455.171875 -112.75 C 454.242188 -109.34375 453.316406 -106.09375 452.390625 -103 C 451.460938 -99.90625 450.378906 -96.8125 449.140625 -93.71875 C 442.328125 -77.019531 434.820312 -60.550781 426.625 -44.3125 C 418.4375 -28.070312 408.925781 -12.53125 398.09375 2.3125 C 396.863281 3.863281 395.550781 5.488281 394.15625 7.1875 C 392.757812 8.894531 391.445312 10.675781 390.21875 12.53125 C 385.570312 19.945312 379.378906 24.039062 371.640625 24.8125 C 363.910156 25.59375 356.644531 24.125 349.84375 20.40625 C 343.039062 16.695312 338.242188 11.597656 335.453125 5.109375 C 332.054688 -3.867188 329.738281 -12.992188 328.5 -22.265625 C 327.257812 -31.546875 326.332031 -40.828125 325.71875 -50.109375 C 323.863281 -72.378906 323.242188 -94.570312 323.859375 -116.6875 C 324.484375 -138.800781 324.796875 -160.84375 324.796875 -182.8125 C 325.097656 -194.257812 325.328125 -205.78125 325.484375 -217.375 C 325.640625 -228.976562 324.941406 -240.65625 323.390625 -252.40625 C 322.160156 -261.070312 319.378906 -269.269531 315.046875 -277 C 310.710938 -284.425781 305.609375 -288.445312 299.734375 -289.0625 C 293.859375 -289.675781 287.984375 -286.890625 282.109375 -280.703125 C 280.242188 -278.546875 278.535156 -276.460938 276.984375 -274.453125 C 275.441406 -272.441406 274.054688 -270.195312 272.828125 -267.71875 C 248.691406 -222.863281 234 -175.226562 228.75 -124.8125 C 227.507812 -111.507812 226.8125 -98.128906 226.65625 -84.671875 C 226.5 -71.222656 226.113281 -57.847656 225.5 -44.546875 C 225.5 -38.046875 224.878906 -34.097656 223.640625 -32.703125 C 222.398438 -31.316406 218.378906 -30.46875 211.578125 -30.15625 C 209.722656 -29.84375 207.789062 -29.6875 205.78125 -29.6875 C 203.769531 -29.6875 201.835938 -29.6875 199.984375 -29.6875 C 195.023438 -29.382812 192.003906 -29.773438 190.921875 -30.859375 C 189.847656 -31.941406 189.3125 -34.957031 189.3125 -39.90625 C 189 -45.46875 188.765625 -51.109375 188.609375 -56.828125 C 188.453125 -62.554688 188.53125 -68.207031 188.84375 -73.78125 C 189.15625 -100.6875 188.148438 -127.441406 185.828125 -154.046875 C 183.503906 -180.648438 180.796875 -207.097656 177.703125 -233.390625 C 175.847656 -250.398438 171.828125 -266.945312 165.640625 -283.03125 C 164.710938 -285.195312 163.785156 -287.285156 162.859375 -289.296875 C 161.929688 -291.304688 161.003906 -293.082031 160.078125 -294.625 C 155.128906 -301.4375 149.710938 -301.75 143.828125 -295.5625 C 139.503906 -291.539062 135.71875 -287.050781 132.46875 -282.09375 C 129.21875 -277.144531 126.359375 -272.046875 123.890625 -266.796875 C 114.609375 -249.160156 106.796875 -231.0625 100.453125 -212.5 C 94.109375 -193.945312 88.925781 -174.925781 84.90625 -155.4375 C 80.269531 -133.78125 76.632812 -111.894531 74 -89.78125 C 71.375 -67.664062 69.132812 -45.472656 67.28125 -23.203125 C 66.96875 -17.328125 66.269531 -13.847656 65.1875 -12.765625 C 64.101562 -11.679688 60.46875 -10.984375 54.28125 -10.671875 C 51.1875 -10.671875 47.628906 -10.671875 43.609375 -10.671875 C 35.878906 -10.671875 31.316406 -11.289062 29.921875 -12.53125 C 28.535156 -13.769531 27.378906 -18.410156 26.453125 -26.453125 C 23.972656 -49.648438 22.882812 -72.847656 23.1875 -96.046875 C 23.5 -119.242188 24.125 -142.285156 25.0625 -165.171875 C 25.675781 -180.953125 26.445312 -196.726562 27.375 -212.5 C 28.300781 -228.28125 29.691406 -244.054688 31.546875 -259.828125 C 34.953125 -289.835938 39.59375 -319.070312 45.46875 -347.53125 C 46.707031 -353.40625 48.019531 -356.882812 49.40625 -357.96875 C 50.800781 -359.050781 54.4375 -359.59375 60.3125 -359.59375 C 63.71875 -359.28125 67.046875 -359.046875 70.296875 -358.890625 C 73.546875 -358.734375 76.71875 -358.65625 79.8125 -358.65625 C 85.0625 -358.65625 88 -356.179688 88.625 -351.234375 C 89.863281 -342.878906 90.171875 -334.679688 89.546875 -326.640625 C 88.617188 -316.128906 87.691406 -305.769531 86.765625 -295.5625 C 85.835938 -285.351562 84.910156 -275.144531 83.984375 -264.9375 Z M 83.984375 -264.9375 "/></g></g></g><g fill="#ede2d0" fill-opacity="1"><g transform="translate(433.462673, 431.999902)"><g><path d="M 102.546875 -10.203125 C 102.546875 -10.203125 103.316406 -8.96875 104.859375 -6.5 C 107.953125 -9.59375 110.425781 -12.914062 112.28125 -16.46875 C 114.132812 -20.03125 115.992188 -23.507812 117.859375 -26.90625 C 124.035156 -39.59375 129.132812 -52.585938 133.15625 -65.890625 C 137.1875 -79.191406 140.898438 -92.644531 144.296875 -106.25 C 147.703125 -119.863281 151.179688 -133.472656 154.734375 -147.078125 C 158.296875 -160.691406 161.625 -174.300781 164.71875 -187.90625 C 165.957031 -193.476562 166.960938 -199.203125 167.734375 -205.078125 C 168.503906 -210.953125 169.507812 -216.832031 170.75 -222.71875 C 171.988281 -228.28125 173.300781 -231.679688 174.6875 -232.921875 C 176.082031 -234.160156 179.71875 -234.929688 185.59375 -235.234375 C 188.375 -235.546875 191.234375 -235.625 194.171875 -235.46875 C 197.109375 -235.3125 199.972656 -235.390625 202.765625 -235.703125 C 206.472656 -236.316406 209.332031 -235.695312 211.34375 -233.84375 C 213.351562 -231.988281 214.820312 -229.515625 215.75 -226.421875 C 219.15625 -216.523438 221.863281 -206.550781 223.875 -196.5 C 225.882812 -186.445312 227.816406 -176.316406 229.671875 -166.109375 C 232.765625 -151.253906 236.007812 -136.328125 239.40625 -121.328125 C 242.8125 -106.328125 247.609375 -91.867188 253.796875 -77.953125 C 255.648438 -74.234375 257.503906 -70.671875 259.359375 -67.265625 C 261.222656 -63.867188 263.546875 -60.625 266.328125 -57.53125 C 273.753906 -49.800781 281.332031 -49.644531 289.0625 -57.0625 C 290.601562 -58.613281 291.992188 -60.316406 293.234375 -62.171875 C 294.472656 -64.023438 295.554688 -65.878906 296.484375 -67.734375 C 302.984375 -78.566406 308.007812 -89.9375 311.5625 -101.84375 C 315.125 -113.75 318.140625 -125.890625 320.609375 -138.265625 C 321.234375 -141.671875 321.003906 -144.609375 319.921875 -147.078125 C 318.835938 -149.554688 317.054688 -151.878906 314.578125 -154.046875 C 285.503906 -181.265625 264.472656 -213.125 251.484375 -249.625 C 248.390625 -258.90625 245.988281 -268.179688 244.28125 -277.453125 C 242.582031 -286.734375 242.507812 -296.328125 244.0625 -306.234375 C 245.914062 -319.535156 251.632812 -329.125 261.21875 -335 C 270.8125 -340.875 281.945312 -341.957031 294.625 -338.25 C 301.738281 -336.082031 308.078125 -332.988281 313.640625 -328.96875 C 319.210938 -324.945312 324.164062 -320.148438 328.5 -314.578125 C 334.070312 -307.160156 338.632812 -299.351562 342.1875 -291.15625 C 345.75 -282.957031 348.609375 -274.523438 350.765625 -265.859375 C 354.785156 -249.160156 357.257812 -232.457031 358.1875 -215.75 C 359.125 -199.050781 359.128906 -182.191406 358.203125 -165.171875 C 357.890625 -159.921875 358.738281 -155.59375 360.75 -152.1875 C 362.757812 -148.78125 366.082031 -145.992188 370.71875 -143.828125 C 393.613281 -131.460938 418.050781 -125.894531 444.03125 -127.125 C 446.8125 -127.125 449.050781 -126.816406 450.75 -126.203125 C 452.457031 -125.585938 453.46875 -123.578125 453.78125 -120.171875 C 453.78125 -117.390625 453.003906 -115.609375 451.453125 -114.828125 C 449.910156 -114.054688 448.054688 -113.519531 445.890625 -113.21875 C 436.296875 -111.976562 426.703125 -111.507812 417.109375 -111.8125 C 407.523438 -112.125 398.09375 -113.363281 388.8125 -115.53125 C 384.789062 -116.769531 380.769531 -117.929688 376.75 -119.015625 C 372.726562 -120.097656 368.707031 -121.253906 364.6875 -122.484375 C 360.050781 -123.722656 357.269531 -124.109375 356.34375 -123.640625 C 355.414062 -123.179688 354.488281 -120.632812 353.5625 -116 C 352.632812 -110.125 351.550781 -104.320312 350.3125 -98.59375 C 349.070312 -92.875 347.523438 -87.078125 345.671875 -81.203125 C 344.117188 -76.867188 342.414062 -72.613281 340.5625 -68.4375 C 338.707031 -64.257812 336.539062 -60.316406 334.0625 -56.609375 C 326.945312 -45.160156 318.050781 -37.191406 307.375 -32.703125 C 296.707031 -28.222656 285.035156 -25.675781 272.359375 -25.0625 C 228.429688 -23.820312 198.269531 -44.390625 181.875 -86.765625 C 180.644531 -89.859375 179.488281 -92.953125 178.40625 -96.046875 C 177.320312 -99.140625 176.003906 -102.695312 174.453125 -106.71875 C 172.910156 -104.238281 171.828125 -101.914062 171.203125 -99.75 C 170.585938 -97.59375 169.972656 -95.429688 169.359375 -93.265625 C 166.566406 -82.742188 163.703125 -72.222656 160.765625 -61.703125 C 157.828125 -51.191406 154.503906 -40.832031 150.796875 -30.625 C 148.015625 -23.820312 145 -17.25 141.75 -10.90625 C 138.5 -4.5625 134.707031 1.546875 130.375 7.421875 C 123.257812 17.015625 113.984375 22.273438 102.546875 23.203125 C 85.835938 24.441406 73.460938 22.507812 65.421875 17.40625 C 57.378906 12.300781 50.265625 3.710938 44.078125 -8.359375 C 39.128906 -18.554688 35.414062 -29.066406 32.9375 -39.890625 C 30.46875 -50.722656 28.457031 -61.707031 26.90625 -72.84375 C 23.8125 -93.257812 22.570312 -113.75 23.1875 -134.3125 C 23.8125 -154.882812 25.207031 -175.378906 27.375 -195.796875 C 29.539062 -217.453125 32.554688 -238.953125 36.421875 -260.296875 C 40.285156 -281.640625 44.847656 -302.828125 50.109375 -323.859375 C 51.347656 -327.566406 52.273438 -330.96875 52.890625 -334.0625 C 54.742188 -340.5625 56.441406 -344.351562 57.984375 -345.4375 C 59.535156 -346.519531 63.5625 -346.90625 70.0625 -346.59375 C 72.539062 -346.59375 75.09375 -346.515625 77.71875 -346.359375 C 80.34375 -346.203125 83.050781 -346.125 85.84375 -346.125 C 92.332031 -345.820312 96.347656 -344.972656 97.890625 -343.578125 C 99.441406 -342.191406 100.375 -338.25 100.6875 -331.75 C 101.300781 -315.664062 101.144531 -299.890625 100.21875 -284.421875 C 98.675781 -263.078125 97.128906 -241.578125 95.578125 -219.921875 C 94.035156 -198.273438 92.644531 -176.625 91.40625 -154.96875 C 90.476562 -132.082031 90.785156 -109.191406 92.328125 -86.296875 C 93.878906 -63.410156 96.820312 -40.519531 101.15625 -17.625 C 101.457031 -15.46875 101.921875 -12.992188 102.546875 -10.203125 Z M 276.078125 -302.046875 C 276.378906 -279.773438 281.171875 -259.515625 290.453125 -241.265625 C 299.734375 -223.015625 310.867188 -205.382812 323.859375 -188.375 C 325.710938 -204.457031 326.175781 -220.234375 325.25 -235.703125 C 324.320312 -251.171875 321.382812 -266.484375 316.4375 -281.640625 C 314.269531 -287.515625 311.796875 -293.15625 309.015625 -298.5625 C 306.234375 -303.976562 302.675781 -308.851562 298.34375 -313.1875 C 296.175781 -315.664062 293.773438 -318.21875 291.140625 -320.84375 C 288.515625 -323.476562 285.65625 -324.175781 282.5625 -322.9375 C 278.851562 -321.695312 276.921875 -319.21875 276.765625 -315.5 C 276.609375 -311.789062 276.378906 -308.238281 276.078125 -304.84375 C 276.078125 -304.21875 276.078125 -303.285156 276.078125 -302.046875 Z M 276.078125 -302.046875 "/></g></g></g></g></g><g transform="matrix(1, 0, 0, 1, 414, 713)"><g clip-path="url(#e15ed760e6)"><g fill="#000000" fill-opacity="1"><g transform="translate(1.962712, 57.199933)"><g><path d="M 15.625 0 L 15.625 -35.9375 L 2.125 -35.9375 L 2.125 -39.1875 L 32.53125 -39.1875 L 32.53125 -35.9375 L 18.984375 -35.9375 L 18.984375 0 Z M 15.625 0 "/></g></g></g><g fill="#000000" fill-opacity="1"><g transform="translate(50.047303, 57.199933)"><g><path d="M 6.328125 0 L 6.328125 -39.1875 L 29.390625 -39.1875 L 29.390625 -36 L 9.734375 -36 L 9.734375 -21.546875 L 27.9375 -21.546875 L 27.9375 -18.421875 L 9.734375 -18.421875 L 9.734375 -3.1875 L 30 -3.1875 L 30 0 Z M 6.328125 0 "/></g></g></g><g fill="#000000" fill-opacity="1"><g transform="translate(97.572231, 57.199933)"><g><path d="M 1.234375 0 L 17.46875 -39.1875 L 20.71875 -39.1875 L 36.953125 0 L 33.359375 0 L 29.28125 -9.859375 L 8.90625 -9.859375 L 4.875 0 Z M 10.25 -12.984375 L 27.984375 -12.984375 L 19.09375 -34.546875 Z M 10.25 -12.984375 "/></g></g></g><g fill="#000000" fill-opacity="1"><g transform="translate(149.238821, 57.199933)"><g><path d="M 6.328125 0 L 6.328125 -39.1875 L 9.515625 -39.1875 L 25.8125 -14.671875 L 42.09375 -39.1875 L 45.234375 -39.1875 L 45.234375 0 L 41.875 0 L 41.875 -32.921875 L 27.203125 -10.921875 L 24.40625 -10.921875 L 9.734375 -32.921875 L 9.734375 0 Z M 6.328125 0 "/></g></g></g><g fill="#000000" fill-opacity="1"><g transform="translate(214.225967, 57.199933)"><g/></g></g><g fill="#000000" fill-opacity="1"><g transform="translate(242.66554, 57.199933)"><g><path d="M 6.328125 0 L 6.328125 -39.1875 L 9.515625 -39.1875 L 25.8125 -14.671875 L 42.09375 -39.1875 L 45.234375 -39.1875 L 45.234375 0 L 41.875 0 L 41.875 -32.921875 L 27.203125 -10.921875 L 24.40625 -10.921875 L 9.734375 -32.921875 L 9.734375 0 Z M 6.328125 0 "/></g></g></g><g fill="#000000" fill-opacity="1"><g transform="translate(307.652686, 57.199933)"><g><path d="M 6.328125 0 L 6.328125 -39.1875 L 29.390625 -39.1875 L 29.390625 -36 L 9.734375 -36 L 9.734375 -21.546875 L 27.9375 -21.546875 L 27.9375 -18.421875 L 9.734375 -18.421875 L 9.734375 -3.1875 L 30 -3.1875 L 30 0 Z M 6.328125 0 "/></g></g></g><g fill="#000000" fill-opacity="1"><g transform="translate(355.177615, 57.199933)"><g><path d="M 32.6875 0 L 32.6875 -18.359375 L 9.734375 -18.359375 L 9.734375 0 L 6.328125 0 L 6.328125 -39.1875 L 9.734375 -39.1875 L 9.734375 -21.609375 L 32.6875 -21.609375 L 32.6875 -39.1875 L 36.109375 -39.1875 L 36.109375 0 Z M 32.6875 0 "/></g></g></g><g fill="#000000" fill-opacity="1"><g transform="translate(411.041852, 57.199933)"><g><path d="M 6.328125 0 L 6.328125 -39.1875 L 20.828125 -39.1875 C 23.472656 -39.1875 25.765625 -38.679688 27.703125 -37.671875 C 29.648438 -36.671875 31.164062 -35.265625 32.25 -33.453125 C 33.332031 -31.640625 33.875 -29.484375 33.875 -26.984375 C 33.875 -23.734375 32.976562 -21.050781 31.1875 -18.9375 C 29.394531 -16.832031 26.945312 -15.519531 23.84375 -15 L 34.484375 0 L 30.40625 0 L 19.875 -14.71875 L 9.734375 -14.71875 L 9.734375 0 Z M 9.734375 -17.96875 L 20.484375 -17.96875 C 23.585938 -17.96875 26.015625 -18.769531 27.765625 -20.375 C 29.523438 -21.976562 30.40625 -24.179688 30.40625 -26.984375 C 30.40625 -29.742188 29.523438 -31.925781 27.765625 -33.53125 C 26.015625 -35.132812 23.585938 -35.9375 20.484375 -35.9375 L 9.734375 -35.9375 Z M 9.734375 -17.96875 "/></g></g></g><g fill="#000000" fill-opacity="1"><g transform="translate(462.764428, 57.199933)"><g><path d="M 14.15625 0 L 1.34375 -39.1875 L 4.921875 -39.1875 L 10.75 -21.328125 L 15.90625 -5.3125 L 21.78125 -21.328125 L 28.265625 -39.1875 L 31.515625 -39.1875 L 43.953125 -5.265625 L 49.15625 -21.328125 L 54.921875 -39.1875 L 58.5 -39.1875 L 45.625 0 L 42.4375 0 L 29.890625 -34.03125 L 22.953125 -15.109375 L 17.40625 0 Z M 14.15625 0 "/></g></g></g><g fill="#000000" fill-opacity="1"><g transform="translate(536.034991, 57.199933)"><g><path d="M 6.328125 0 L 6.328125 -39.1875 L 29.390625 -39.1875 L 29.390625 -36 L 9.734375 -36 L 9.734375 -21.546875 L 27.9375 -21.546875 L 27.9375 -18.421875 L 9.734375 -18.421875 L 9.734375 -3.1875 L 30 -3.1875 L 30 0 Z M 6.328125 0 "/></g></g></g><g fill="#000000" fill-opacity="1"><g transform="translate(583.55992, 57.199933)"><g><path d="M 6.328125 0 L 6.328125 -39.1875 L 20.828125 -39.1875 C 23.472656 -39.1875 25.765625 -38.679688 27.703125 -37.671875 C 29.648438 -36.671875 31.164062 -35.265625 32.25 -33.453125 C 33.332031 -31.640625 33.875 -29.484375 33.875 -26.984375 C 33.875 -23.734375 32.976562 -21.050781 31.1875 -18.9375 C 29.394531 -16.832031 26.945312 -15.519531 23.84375 -15 L 34.484375 0 L 30.40625 0 L 19.875 -14.71875 L 9.734375 -14.71875 L 9.734375 0 Z M 9.734375 -17.96875 L 20.484375 -17.96875 C 23.585938 -17.96875 26.015625 -18.769531 27.765625 -20.375 C 29.523438 -21.976562 30.40625 -24.179688 30.40625 -26.984375 C 30.40625 -29.742188 29.523438 -31.925781 27.765625 -33.53125 C 26.015625 -35.132812 23.585938 -35.9375 20.484375 -35.9375 L 9.734375 -35.9375 Z M 9.734375 -17.96875 "/></g></g></g><g fill="#000000" fill-opacity="1"><g transform="translate(635.282495, 57.199933)"><g><path d="M 15.625 0 L 15.625 -35.9375 L 2.125 -35.9375 L 2.125 -39.1875 L 32.53125 -39.1875 L 32.53125 -35.9375 L 18.984375 -35.9375 L 18.984375 0 Z M 15.625 0 "/></g></g></g></g></g></svg>